<?xml version="1.0" encoding="UTF-8" standalone="no"?>
<!-- Created with Inkscape (http://www.inkscape.org/) -->

<svg
   xmlns:dc="http://purl.org/dc/elements/1.1/"
   xmlns:cc="http://creativecommons.org/ns#"
   xmlns:rdf="http://www.w3.org/1999/02/22-rdf-syntax-ns#"
   xmlns:svg="http://www.w3.org/2000/svg"
   xmlns="http://www.w3.org/2000/svg"
   xmlns:sodipodi="http://sodipodi.sourceforge.net/DTD/sodipodi-0.dtd"
   xmlns:inkscape="http://www.inkscape.org/namespaces/inkscape"
   width="400"
   height="400"
   id="svg2985"
   version="1.1"
   inkscape:version="0.48.4 r9939"
   sodipodi:docname="facebook_logo1.svg"
   inkscape:export-filename="C:\Users\kshou_000\Dropbox\docs\ken-shoufer\graphics\facebook_logo2.png"
   inkscape:export-xdpi="67.5"
   inkscape:export-ydpi="67.5">
  <defs
     id="defs2987">
    <clipPath
       clipPathUnits="userSpaceOnUse"
       id="clipPath4251">
      <g
         transform="matrix(-0.72953185,-0.68394684,0.68394684,-0.72953185,975.7429,1112.5538)"
         id="g4253">
        <g
           style="fill:#008080"
           transform="matrix(1.5120721,0,0,1.5120721,422.17987,21.635871)"
           id="g4255">
          <path
             style="fill:#008080"
             inkscape:connector-curvature="0"
             d="m 119.125,342.916 c -9.503,29.933 -41.469,46.493 -71.403,36.991 -29.932,-9.504 -46.494,-41.472 -36.991,-71.404 9.503,-29.933 41.471,-46.495 71.403,-36.992 29.935,9.504 46.494,41.472 36.991,71.405 z m -68.637,28.278 c 25.122,7.977 51.95,-5.922 59.927,-31.044 7.974,-25.122 -5.923,-51.954 -31.045,-59.929 -25.124,-7.977 -51.953,5.925 -59.929,31.046 -7.977,25.122 5.923,51.952 31.047,59.927 z"
             id="path4257" />
          <path
             style="fill:#008080"
             inkscape:connector-curvature="0"
             d="m 76.744,329.46 c -2.072,6.525 -9.042,10.136 -15.567,8.063 -6.524,-2.072 -10.135,-9.041 -8.063,-15.565 2.071,-6.525 9.041,-10.135 15.563,-8.063 6.527,2.071 10.137,9.04 8.067,15.565 z m -14.196,3.745 c 4.142,1.314 8.563,-0.976 9.876,-5.117 1.314,-4.14 -0.975,-8.563 -5.117,-9.877 -4.139,-1.315 -8.562,0.977 -9.876,5.117 -1.314,4.141 0.977,8.562 5.117,9.877 z"
             id="path4259" />
          <path
             style="fill:#008080"
             inkscape:connector-curvature="0"
             d="m 87.727,272.217 c 0.295,-0.933 1.501,-4.73 1.501,-4.73 0.337,-1.058 -0.25,-2.188 -1.307,-2.524 l -6.736,-2.138 c -1.057,-0.336 -2.188,0.25 -2.523,1.307 0,0 -1.205,3.797 -1.501,4.73 -0.297,0.932 -2.49,0.817 -2.49,0.817 l -1.182,3.725 c -0.336,1.057 0.248,2.186 1.306,2.522 l 5.395,1.713 5.395,1.712 c 1.058,0.335 2.187,-0.249 2.522,-1.307 l 1.181,-3.723 c 0,10e-4 -1.857,-1.172 -1.561,-2.104 z"
             id="path4261" />
          <path
             style="fill:#008080"
             inkscape:connector-curvature="0"
             d="M 65.522,267.565 C 65.437,266.588 65.1,262.62 65.1,262.62 c -0.096,-1.106 -1.07,-1.925 -2.175,-1.831 l -7.042,0.602 c -1.106,0.095 -1.925,1.067 -1.831,2.173 0,0 0.338,3.968 0.422,4.944 0.084,0.976 -1.988,1.709 -1.988,1.709 l 0.333,3.893 c 0.093,1.105 1.065,1.925 2.172,1.831 l 5.64,-0.482 5.642,-0.482 c 1.104,-0.094 1.922,-1.068 1.829,-2.172 l -0.332,-3.894 c 0.001,0 -2.167,-0.371 -2.248,-1.346 z"
             id="path4263" />
          <path
             style="fill:#008080"
             inkscape:connector-curvature="0"
             d="m 43.226,271.765 c -0.452,-0.869 -2.284,-4.406 -2.284,-4.406 -0.511,-0.986 -1.723,-1.371 -2.71,-0.86 l -6.275,3.25 c -0.984,0.51 -1.369,1.723 -0.86,2.708 0,0 1.833,3.537 2.284,4.407 0.451,0.87 -1.183,2.34 -1.183,2.34 l 1.797,3.469 c 0.511,0.986 1.723,1.371 2.709,0.859 l 5.026,-2.603 5.026,-2.604 c 0.987,-0.51 1.368,-1.724 0.86,-2.71 l -1.797,-3.469 c -0.001,0 -2.147,0.487 -2.593,-0.381 z"
             id="path4265" />
          <path
             style="fill:#008080"
             inkscape:connector-curvature="0"
             d="m 24.232,284.176 c -0.749,-0.631 -3.797,-3.197 -3.797,-3.197 -0.846,-0.715 -2.113,-0.606 -2.83,0.241 l -4.552,5.406 c -0.718,0.847 -0.608,2.117 0.242,2.832 0,0 3.047,2.565 3.794,3.196 0.75,0.631 -0.197,2.615 -0.197,2.615 l 2.989,2.518 c 0.848,0.714 2.113,0.606 2.831,-0.243 l 3.646,-4.329 3.647,-4.328 c 0.716,-0.85 0.604,-2.118 -0.243,-2.833 l -2.988,-2.517 c 0,0 -1.792,1.27 -2.542,0.639 z"
             id="path4267" />
          <path
             style="fill:#008080"
             inkscape:connector-curvature="0"
             d="m 11.437,302.911 c -0.934,-0.296 -4.731,-1.501 -4.731,-1.501 -1.059,-0.334 -2.187,0.25 -2.522,1.308 l -2.14,6.736 c -0.333,1.058 0.25,2.188 1.307,2.523 0,0 3.797,1.206 4.731,1.501 0.932,0.297 0.815,2.492 0.815,2.492 l 3.726,1.182 c 1.056,0.335 2.187,-0.249 2.524,-1.307 l 1.711,-5.395 1.714,-5.395 c 0.335,-1.058 -0.251,-2.188 -1.307,-2.523 l -3.726,-1.182 c 10e-4,-0.002 -1.172,1.858 -2.102,1.561 z"
             id="path4269" />
          <path
             style="fill:#008080"
             inkscape:connector-curvature="0"
             d="m 6.783,325.117 c -0.974,0.083 -4.944,0.422 -4.944,0.422 -1.106,0.094 -1.924,1.067 -1.832,2.173 l 0.602,7.042 c 0.095,1.105 1.068,1.924 2.175,1.831 0,0 3.969,-0.341 4.945,-0.422 0.975,-0.082 1.707,1.987 1.707,1.987 l 3.894,-0.333 c 1.106,-0.092 1.927,-1.067 1.832,-2.172 l -0.482,-5.639 -0.482,-5.641 c -0.096,-1.106 -1.068,-1.925 -2.173,-1.832 l -3.895,0.334 c -0.002,10e-4 -0.371,2.167 -1.347,2.25 z"
             id="path4271" />
          <path
             style="fill:#008080"
             inkscape:connector-curvature="0"
             d="m 10.984,347.412 c -0.873,0.451 -4.408,2.283 -4.408,2.283 -0.984,0.511 -1.37,1.724 -0.86,2.709 l 3.251,6.276 c 0.511,0.986 1.723,1.369 2.709,0.86 0,0 3.538,-1.833 4.406,-2.283 0.869,-0.451 2.34,1.185 2.34,1.185 l 3.467,-1.799 c 0.989,-0.511 1.375,-1.723 0.862,-2.71 l -2.605,-5.025 -2.602,-5.025 c -0.511,-0.985 -1.725,-1.37 -2.709,-0.861 l -3.47,1.798 c 0,0.001 0.488,2.145 -0.381,2.592 z"
             id="path4273" />
          <path
             style="fill:#008080"
             inkscape:connector-curvature="0"
             d="m 23.393,366.405 c -0.63,0.749 -3.196,3.796 -3.196,3.796 -0.716,0.848 -0.606,2.115 0.242,2.83 l 5.406,4.555 c 0.848,0.717 2.117,0.604 2.831,-0.244 0,0 2.565,-3.045 3.199,-3.793 0.629,-0.75 2.611,0.197 2.611,0.197 l 2.519,-2.988 c 0.713,-0.848 0.604,-2.115 -0.243,-2.832 l -4.328,-3.647 -4.329,-3.646 c -0.849,-0.715 -2.117,-0.608 -2.832,0.243 l -2.518,2.986 c 0.001,0 1.269,1.793 0.638,2.543 z"
             id="path4275" />
          <path
             style="fill:#008080"
             inkscape:connector-curvature="0"
             d="m 42.13,379.202 c -0.297,0.934 -1.503,4.73 -1.503,4.73 -0.334,1.057 0.251,2.186 1.309,2.523 l 6.735,2.139 c 1.058,0.334 2.189,-0.25 2.524,-1.309 0,0 1.205,-3.797 1.501,-4.73 0.295,-0.932 2.492,-0.814 2.492,-0.814 l 1.182,-3.727 c 0.336,-1.057 -0.251,-2.188 -1.307,-2.523 l -5.395,-1.711 -5.395,-1.715 c -1.058,-0.334 -2.187,0.25 -2.524,1.307 l -1.182,3.727 c 0,-10e-4 1.86,1.171 1.563,2.103 z"
             id="path4277" />
          <path
             style="fill:#008080"
             inkscape:connector-curvature="0"
             d="m 64.336,383.854 c 0.084,0.977 0.422,4.945 0.422,4.945 0.095,1.104 1.068,1.924 2.175,1.832 l 7.042,-0.602 c 1.106,-0.098 1.924,-1.068 1.832,-2.178 0,0 -0.341,-3.967 -0.426,-4.941 -0.084,-0.979 1.99,-1.709 1.99,-1.709 l -0.335,-3.895 c -0.092,-1.105 -1.065,-1.922 -2.172,-1.83 l -5.64,0.484 -5.64,0.48 c -1.106,0.096 -1.925,1.068 -1.831,2.174 l 0.332,3.893 c 10e-4,10e-4 2.166,0.372 2.251,1.347 z"
             id="path4279" />
          <path
             style="fill:#008080"
             inkscape:connector-curvature="0"
             d="m 86.631,379.655 c 0.452,0.871 2.284,4.408 2.284,4.408 0.511,0.982 1.723,1.369 2.71,0.859 l 6.275,-3.254 c 0.984,-0.508 1.37,-1.723 0.86,-2.707 0,0 -1.832,-3.537 -2.284,-4.406 -0.452,-0.871 1.183,-2.338 1.183,-2.338 l -1.797,-3.47 c -0.511,-0.987 -1.725,-1.369 -2.71,-0.86 l -5.025,2.606 -5.024,2.602 c -0.986,0.512 -1.37,1.725 -0.862,2.711 l 1.798,3.467 c 0.001,-0.001 2.144,-0.487 2.592,0.382 z"
             id="path4281" />
          <path
             style="fill:#008080"
             inkscape:connector-curvature="0"
             d="m 105.625,367.244 c 0.75,0.629 3.794,3.196 3.794,3.196 0.85,0.717 2.117,0.605 2.832,-0.242 l 4.553,-5.404 c 0.716,-0.85 0.606,-2.118 -0.24,-2.833 0,0 -3.047,-2.565 -3.795,-3.197 -0.75,-0.632 0.197,-2.612 0.197,-2.612 l -2.988,-2.518 c -0.849,-0.714 -2.115,-0.606 -2.831,0.242 l -3.647,4.328 -3.646,4.33 c -0.716,0.848 -0.606,2.117 0.24,2.83 l 2.989,2.52 c 0,-0.001 1.792,-1.274 2.542,-0.64 z"
             id="path4283" />
          <path
             style="fill:#008080"
             inkscape:connector-curvature="0"
             d="m 118.419,348.508 c 0.935,0.297 4.731,1.501 4.731,1.501 1.058,0.335 2.187,-0.25 2.524,-1.307 l 2.138,-6.737 c 0.335,-1.056 -0.25,-2.187 -1.307,-2.522 0,0 -3.796,-1.205 -4.731,-1.501 -0.932,-0.296 -0.816,-2.491 -0.816,-2.491 l -3.724,-1.182 c -1.058,-0.336 -2.188,0.249 -2.524,1.307 l -1.712,5.394 -1.713,5.397 c -0.335,1.056 0.25,2.186 1.307,2.521 l 3.724,1.183 c 0,-0.001 1.173,-1.859 2.103,-1.563 z"
             id="path4285" />
          <path
             style="fill:#008080"
             inkscape:connector-curvature="0"
             d="m 123.074,326.301 c 0.975,-0.083 4.945,-0.422 4.945,-0.422 1.104,-0.094 1.924,-1.067 1.831,-2.173 l -0.602,-7.042 c -0.097,-1.105 -1.07,-1.925 -2.175,-1.832 0,0 -3.969,0.341 -4.944,0.425 -0.977,0.083 -1.708,-1.989 -1.708,-1.989 l -3.895,0.333 c -1.105,0.093 -1.924,1.067 -1.829,2.173 l 0.48,5.64 0.484,5.639 c 0.095,1.105 1.068,1.926 2.173,1.832 l 3.892,-0.333 c 0.001,-0.001 0.373,-2.169 1.348,-2.251 z"
             id="path4287" />
          <path
             style="fill:#008080"
             inkscape:connector-curvature="0"
             d="m 118.874,304.004 c 0.871,-0.45 4.406,-2.283 4.406,-2.283 0.984,-0.511 1.369,-1.724 0.862,-2.708 l -3.252,-6.275 c -0.511,-0.985 -1.723,-1.37 -2.709,-0.86 0,0 -3.537,1.834 -4.406,2.282 -0.871,0.452 -2.338,-1.182 -2.338,-1.182 l -3.47,1.797 c -0.987,0.51 -1.372,1.724 -0.86,2.709 l 2.604,5.025 2.604,5.026 c 0.511,0.985 1.723,1.371 2.709,0.86 l 3.468,-1.798 c -0.002,0.001 -0.487,-2.142 0.382,-2.593 z"
             id="path4289" />
          <path
             style="fill:#008080"
             inkscape:connector-curvature="0"
             d="m 106.463,285.013 c 0.63,-0.749 3.195,-3.795 3.195,-3.795 0.715,-0.849 0.606,-2.116 -0.242,-2.833 l -5.404,-4.553 c -0.849,-0.714 -2.118,-0.606 -2.833,0.242 0,0 -2.565,3.046 -3.199,3.796 -0.629,0.75 -2.611,-0.197 -2.611,-0.197 l -2.518,2.987 c -0.716,0.848 -0.606,2.118 0.242,2.832 l 4.33,3.647 4.327,3.646 c 0.849,0.716 2.118,0.608 2.831,-0.242 l 2.518,-2.987 c 10e-4,0 -1.269,-1.795 -0.636,-2.543 z"
             id="path4291" />
          <circle
             style="fill:#008080"
             sodipodi:ry="5.7779999"
             sodipodi:rx="5.7779999"
             sodipodi:cy="325.70901"
             sodipodi:cx="64.93"
             d="m 70.708,325.70901 c 0,3.19111 -2.586898,5.778 -5.778,5.778 -3.191101,0 -5.778,-2.58689 -5.778,-5.778 0,-3.1911 2.586899,-5.77799 5.778,-5.77799 3.191102,0 5.778,2.58689 5.778,5.77799 z"
             cx="64.93"
             cy="325.70901"
             r="5.7779999"
             id="circle4293" />
          <rect
             style="fill:#008080"
             x="70.758003"
             y="277.28299"
             transform="matrix(0.9531,0.3026,-0.3026,0.9531,93.4687,-8.4198)"
             width="6.296"
             height="40.285999"
             id="rect4295" />
          <rect
             style="fill:#008080"
             x="41.775002"
             y="283.64899"
             transform="matrix(0.7384,-0.6743,0.6743,0.7384,-193.1009,109.7504)"
             width="6.296"
             height="40.286999"
             id="rect4297" />
          <rect
             style="fill:#008080"
             x="32.796001"
             y="311.93201"
             transform="matrix(-0.2146,-0.9767,0.9767,-0.2146,-280.6832,438.4362)"
             width="6.2989998"
             height="40.286999"
             id="rect4299" />
          <rect
             style="fill:#008080"
             x="52.804001"
             y="333.85101"
             transform="matrix(-0.9533,-0.3021,0.3021,-0.9533,2.3412,708.3494)"
             width="6.2969999"
             height="40.285999"
             id="rect4301" />
          <rect
             style="fill:#008080"
             x="81.783997"
             y="327.48499"
             transform="matrix(-0.7383,0.6745,-0.6745,-0.7383,382.1104,546.9877)"
             width="6.3000002"
             height="40.285"
             id="rect4303" />
          <rect
             style="fill:#008080"
             x="90.764999"
             y="299.20001"
             transform="matrix(0.2144,0.9767,-0.9767,0.2144,385.6941,159.1443)"
             width="6.2969999"
             height="40.286999"
             id="rect4305" />
        </g>
        <g
           style="fill:#005a5a;fill-opacity:1"
           transform="matrix(0.9524308,0.17661437,-0.17661437,0.9524308,361.39914,177.69706)"
           id="g4307">
          <path
             style="fill:#005a5a;fill-opacity:1"
             inkscape:connector-curvature="0"
             d="m 119.125,342.916 c -9.503,29.933 -41.469,46.493 -71.403,36.991 -29.932,-9.504 -46.494,-41.472 -36.991,-71.404 9.503,-29.933 41.471,-46.495 71.403,-36.992 29.935,9.504 46.494,41.472 36.991,71.405 z m -68.637,28.278 c 25.122,7.977 51.95,-5.922 59.927,-31.044 7.974,-25.122 -5.923,-51.954 -31.045,-59.929 -25.124,-7.977 -51.953,5.925 -59.929,31.046 -7.977,25.122 5.923,51.952 31.047,59.927 z"
             id="path4309" />
          <path
             style="fill:#005a5a;fill-opacity:1"
             inkscape:connector-curvature="0"
             d="m 76.744,329.46 c -2.072,6.525 -9.042,10.136 -15.567,8.063 -6.524,-2.072 -10.135,-9.041 -8.063,-15.565 2.071,-6.525 9.041,-10.135 15.563,-8.063 6.527,2.071 10.137,9.04 8.067,15.565 z m -14.196,3.745 c 4.142,1.314 8.563,-0.976 9.876,-5.117 1.314,-4.14 -0.975,-8.563 -5.117,-9.877 -4.139,-1.315 -8.562,0.977 -9.876,5.117 -1.314,4.141 0.977,8.562 5.117,9.877 z"
             id="path4311" />
          <path
             style="fill:#005a5a;fill-opacity:1"
             inkscape:connector-curvature="0"
             d="m 87.727,272.217 c 0.295,-0.933 1.501,-4.73 1.501,-4.73 0.337,-1.058 -0.25,-2.188 -1.307,-2.524 l -6.736,-2.138 c -1.057,-0.336 -2.188,0.25 -2.523,1.307 0,0 -1.205,3.797 -1.501,4.73 -0.297,0.932 -2.49,0.817 -2.49,0.817 l -1.182,3.725 c -0.336,1.057 0.248,2.186 1.306,2.522 l 5.395,1.713 5.395,1.712 c 1.058,0.335 2.187,-0.249 2.522,-1.307 l 1.181,-3.723 c 0,10e-4 -1.857,-1.172 -1.561,-2.104 z"
             id="path4313" />
          <path
             style="fill:#005a5a;fill-opacity:1"
             inkscape:connector-curvature="0"
             d="M 65.522,267.565 C 65.437,266.588 65.1,262.62 65.1,262.62 c -0.096,-1.106 -1.07,-1.925 -2.175,-1.831 l -7.042,0.602 c -1.106,0.095 -1.925,1.067 -1.831,2.173 0,0 0.338,3.968 0.422,4.944 0.084,0.976 -1.988,1.709 -1.988,1.709 l 0.333,3.893 c 0.093,1.105 1.065,1.925 2.172,1.831 l 5.64,-0.482 5.642,-0.482 c 1.104,-0.094 1.922,-1.068 1.829,-2.172 l -0.332,-3.894 c 0.001,0 -2.167,-0.371 -2.248,-1.346 z"
             id="path4315" />
          <path
             style="fill:#005a5a;fill-opacity:1"
             inkscape:connector-curvature="0"
             d="m 43.226,271.765 c -0.452,-0.869 -2.284,-4.406 -2.284,-4.406 -0.511,-0.986 -1.723,-1.371 -2.71,-0.86 l -6.275,3.25 c -0.984,0.51 -1.369,1.723 -0.86,2.708 0,0 1.833,3.537 2.284,4.407 0.451,0.87 -1.183,2.34 -1.183,2.34 l 1.797,3.469 c 0.511,0.986 1.723,1.371 2.709,0.859 l 5.026,-2.603 5.026,-2.604 c 0.987,-0.51 1.368,-1.724 0.86,-2.71 l -1.797,-3.469 c -0.001,0 -2.147,0.487 -2.593,-0.381 z"
             id="path4317" />
          <path
             style="fill:#005a5a;fill-opacity:1"
             inkscape:connector-curvature="0"
             d="m 24.232,284.176 c -0.749,-0.631 -3.797,-3.197 -3.797,-3.197 -0.846,-0.715 -2.113,-0.606 -2.83,0.241 l -4.552,5.406 c -0.718,0.847 -0.608,2.117 0.242,2.832 0,0 3.047,2.565 3.794,3.196 0.75,0.631 -0.197,2.615 -0.197,2.615 l 2.989,2.518 c 0.848,0.714 2.113,0.606 2.831,-0.243 l 3.646,-4.329 3.647,-4.328 c 0.716,-0.85 0.604,-2.118 -0.243,-2.833 l -2.988,-2.517 c 0,0 -1.792,1.27 -2.542,0.639 z"
             id="path4319" />
          <path
             style="fill:#005a5a;fill-opacity:1"
             inkscape:connector-curvature="0"
             d="m 11.437,302.911 c -0.934,-0.296 -4.731,-1.501 -4.731,-1.501 -1.059,-0.334 -2.187,0.25 -2.522,1.308 l -2.14,6.736 c -0.333,1.058 0.25,2.188 1.307,2.523 0,0 3.797,1.206 4.731,1.501 0.932,0.297 0.815,2.492 0.815,2.492 l 3.726,1.182 c 1.056,0.335 2.187,-0.249 2.524,-1.307 l 1.711,-5.395 1.714,-5.395 c 0.335,-1.058 -0.251,-2.188 -1.307,-2.523 l -3.726,-1.182 c 10e-4,-0.002 -1.172,1.858 -2.102,1.561 z"
             id="path4321" />
          <path
             style="fill:#005a5a;fill-opacity:1"
             inkscape:connector-curvature="0"
             d="m 6.783,325.117 c -0.974,0.083 -4.944,0.422 -4.944,0.422 -1.106,0.094 -1.924,1.067 -1.832,2.173 l 0.602,7.042 c 0.095,1.105 1.068,1.924 2.175,1.831 0,0 3.969,-0.341 4.945,-0.422 0.975,-0.082 1.707,1.987 1.707,1.987 l 3.894,-0.333 c 1.106,-0.092 1.927,-1.067 1.832,-2.172 l -0.482,-5.639 -0.482,-5.641 c -0.096,-1.106 -1.068,-1.925 -2.173,-1.832 l -3.895,0.334 c -0.002,10e-4 -0.371,2.167 -1.347,2.25 z"
             id="path4323" />
          <path
             style="fill:#005a5a;fill-opacity:1"
             inkscape:connector-curvature="0"
             d="m 10.984,347.412 c -0.873,0.451 -4.408,2.283 -4.408,2.283 -0.984,0.511 -1.37,1.724 -0.86,2.709 l 3.251,6.276 c 0.511,0.986 1.723,1.369 2.709,0.86 0,0 3.538,-1.833 4.406,-2.283 0.869,-0.451 2.34,1.185 2.34,1.185 l 3.467,-1.799 c 0.989,-0.511 1.375,-1.723 0.862,-2.71 l -2.605,-5.025 -2.602,-5.025 c -0.511,-0.985 -1.725,-1.37 -2.709,-0.861 l -3.47,1.798 c 0,0.001 0.488,2.145 -0.381,2.592 z"
             id="path4325" />
          <path
             style="fill:#005a5a;fill-opacity:1"
             inkscape:connector-curvature="0"
             d="m 23.393,366.405 c -0.63,0.749 -3.196,3.796 -3.196,3.796 -0.716,0.848 -0.606,2.115 0.242,2.83 l 5.406,4.555 c 0.848,0.717 2.117,0.604 2.831,-0.244 0,0 2.565,-3.045 3.199,-3.793 0.629,-0.75 2.611,0.197 2.611,0.197 l 2.519,-2.988 c 0.713,-0.848 0.604,-2.115 -0.243,-2.832 l -4.328,-3.647 -4.329,-3.646 c -0.849,-0.715 -2.117,-0.608 -2.832,0.243 l -2.518,2.986 c 0.001,0 1.269,1.793 0.638,2.543 z"
             id="path4327" />
          <path
             style="fill:#005a5a;fill-opacity:1"
             inkscape:connector-curvature="0"
             d="m 42.13,379.202 c -0.297,0.934 -1.503,4.73 -1.503,4.73 -0.334,1.057 0.251,2.186 1.309,2.523 l 6.735,2.139 c 1.058,0.334 2.189,-0.25 2.524,-1.309 0,0 1.205,-3.797 1.501,-4.73 0.295,-0.932 2.492,-0.814 2.492,-0.814 l 1.182,-3.727 c 0.336,-1.057 -0.251,-2.188 -1.307,-2.523 l -5.395,-1.711 -5.395,-1.715 c -1.058,-0.334 -2.187,0.25 -2.524,1.307 l -1.182,3.727 c 0,-10e-4 1.86,1.171 1.563,2.103 z"
             id="path4329" />
          <path
             style="fill:#005a5a;fill-opacity:1"
             inkscape:connector-curvature="0"
             d="m 64.336,383.854 c 0.084,0.977 0.422,4.945 0.422,4.945 0.095,1.104 1.068,1.924 2.175,1.832 l 7.042,-0.602 c 1.106,-0.098 1.924,-1.068 1.832,-2.178 0,0 -0.341,-3.967 -0.426,-4.941 -0.084,-0.979 1.99,-1.709 1.99,-1.709 l -0.335,-3.895 c -0.092,-1.105 -1.065,-1.922 -2.172,-1.83 l -5.64,0.484 -5.64,0.48 c -1.106,0.096 -1.925,1.068 -1.831,2.174 l 0.332,3.893 c 10e-4,10e-4 2.166,0.372 2.251,1.347 z"
             id="path4331" />
          <path
             style="fill:#005a5a;fill-opacity:1"
             inkscape:connector-curvature="0"
             d="m 86.631,379.655 c 0.452,0.871 2.284,4.408 2.284,4.408 0.511,0.982 1.723,1.369 2.71,0.859 l 6.275,-3.254 c 0.984,-0.508 1.37,-1.723 0.86,-2.707 0,0 -1.832,-3.537 -2.284,-4.406 -0.452,-0.871 1.183,-2.338 1.183,-2.338 l -1.797,-3.47 c -0.511,-0.987 -1.725,-1.369 -2.71,-0.86 l -5.025,2.606 -5.024,2.602 c -0.986,0.512 -1.37,1.725 -0.862,2.711 l 1.798,3.467 c 0.001,-0.001 2.144,-0.487 2.592,0.382 z"
             id="path4333" />
          <path
             style="fill:#005a5a;fill-opacity:1"
             inkscape:connector-curvature="0"
             d="m 105.625,367.244 c 0.75,0.629 3.794,3.196 3.794,3.196 0.85,0.717 2.117,0.605 2.832,-0.242 l 4.553,-5.404 c 0.716,-0.85 0.606,-2.118 -0.24,-2.833 0,0 -3.047,-2.565 -3.795,-3.197 -0.75,-0.632 0.197,-2.612 0.197,-2.612 l -2.988,-2.518 c -0.849,-0.714 -2.115,-0.606 -2.831,0.242 l -3.647,4.328 -3.646,4.33 c -0.716,0.848 -0.606,2.117 0.24,2.83 l 2.989,2.52 c 0,-0.001 1.792,-1.274 2.542,-0.64 z"
             id="path4335" />
          <path
             style="fill:#005a5a;fill-opacity:1"
             inkscape:connector-curvature="0"
             d="m 118.419,348.508 c 0.935,0.297 4.731,1.501 4.731,1.501 1.058,0.335 2.187,-0.25 2.524,-1.307 l 2.138,-6.737 c 0.335,-1.056 -0.25,-2.187 -1.307,-2.522 0,0 -3.796,-1.205 -4.731,-1.501 -0.932,-0.296 -0.816,-2.491 -0.816,-2.491 l -3.724,-1.182 c -1.058,-0.336 -2.188,0.249 -2.524,1.307 l -1.712,5.394 -1.713,5.397 c -0.335,1.056 0.25,2.186 1.307,2.521 l 3.724,1.183 c 0,-0.001 1.173,-1.859 2.103,-1.563 z"
             id="path4337" />
          <path
             style="fill:#005a5a;fill-opacity:1"
             inkscape:connector-curvature="0"
             d="m 123.074,326.301 c 0.975,-0.083 4.945,-0.422 4.945,-0.422 1.104,-0.094 1.924,-1.067 1.831,-2.173 l -0.602,-7.042 c -0.097,-1.105 -1.07,-1.925 -2.175,-1.832 0,0 -3.969,0.341 -4.944,0.425 -0.977,0.083 -1.708,-1.989 -1.708,-1.989 l -3.895,0.333 c -1.105,0.093 -1.924,1.067 -1.829,2.173 l 0.48,5.64 0.484,5.639 c 0.095,1.105 1.068,1.926 2.173,1.832 l 3.892,-0.333 c 0.001,-0.001 0.373,-2.169 1.348,-2.251 z"
             id="path4339" />
          <path
             style="fill:#005a5a;fill-opacity:1"
             inkscape:connector-curvature="0"
             d="m 118.874,304.004 c 0.871,-0.45 4.406,-2.283 4.406,-2.283 0.984,-0.511 1.369,-1.724 0.862,-2.708 l -3.252,-6.275 c -0.511,-0.985 -1.723,-1.37 -2.709,-0.86 0,0 -3.537,1.834 -4.406,2.282 -0.871,0.452 -2.338,-1.182 -2.338,-1.182 l -3.47,1.797 c -0.987,0.51 -1.372,1.724 -0.86,2.709 l 2.604,5.025 2.604,5.026 c 0.511,0.985 1.723,1.371 2.709,0.86 l 3.468,-1.798 c -0.002,0.001 -0.487,-2.142 0.382,-2.593 z"
             id="path4341" />
          <path
             style="fill:#005a5a;fill-opacity:1"
             inkscape:connector-curvature="0"
             d="m 106.463,285.013 c 0.63,-0.749 3.195,-3.795 3.195,-3.795 0.715,-0.849 0.606,-2.116 -0.242,-2.833 l -5.404,-4.553 c -0.849,-0.714 -2.118,-0.606 -2.833,0.242 0,0 -2.565,3.046 -3.199,3.796 -0.629,0.75 -2.611,-0.197 -2.611,-0.197 l -2.518,2.987 c -0.716,0.848 -0.606,2.118 0.242,2.832 l 4.33,3.647 4.327,3.646 c 0.849,0.716 2.118,0.608 2.831,-0.242 l 2.518,-2.987 c 10e-4,0 -1.269,-1.795 -0.636,-2.543 z"
             id="path4343" />
          <circle
             style="fill:#005a5a;fill-opacity:1"
             sodipodi:ry="5.7779999"
             sodipodi:rx="5.7779999"
             sodipodi:cy="325.70901"
             sodipodi:cx="64.93"
             d="m 70.708,325.70901 c 0,3.19111 -2.586898,5.778 -5.778,5.778 -3.191101,0 -5.778,-2.58689 -5.778,-5.778 0,-3.1911 2.586899,-5.77799 5.778,-5.77799 3.191102,0 5.778,2.58689 5.778,5.77799 z"
             cx="64.93"
             cy="325.70901"
             r="5.7779999"
             id="circle4345" />
          <rect
             style="fill:#005a5a;fill-opacity:1"
             x="70.758003"
             y="277.28299"
             transform="matrix(0.9531,0.3026,-0.3026,0.9531,93.4687,-8.4198)"
             width="6.296"
             height="40.285999"
             id="rect4347" />
          <rect
             style="fill:#005a5a;fill-opacity:1"
             x="41.775002"
             y="283.64899"
             transform="matrix(0.7384,-0.6743,0.6743,0.7384,-193.1009,109.7504)"
             width="6.296"
             height="40.286999"
             id="rect4349" />
          <rect
             style="fill:#005a5a;fill-opacity:1"
             x="32.796001"
             y="311.93201"
             transform="matrix(-0.2146,-0.9767,0.9767,-0.2146,-280.6832,438.4362)"
             width="6.2989998"
             height="40.286999"
             id="rect4351" />
          <rect
             style="fill:#005a5a;fill-opacity:1"
             x="52.804001"
             y="333.85101"
             transform="matrix(-0.9533,-0.3021,0.3021,-0.9533,2.3412,708.3494)"
             width="6.2969999"
             height="40.285999"
             id="rect4353" />
          <rect
             style="fill:#005a5a;fill-opacity:1"
             x="81.783997"
             y="327.48499"
             transform="matrix(-0.7383,0.6745,-0.6745,-0.7383,382.1104,546.9877)"
             width="6.3000002"
             height="40.285"
             id="rect4355" />
          <rect
             style="fill:#005a5a;fill-opacity:1"
             x="90.764999"
             y="299.20001"
             transform="matrix(0.2144,0.9767,-0.9767,0.2144,385.6941,159.1443)"
             width="6.2969999"
             height="40.286999"
             id="rect4357" />
        </g>
      </g>
    </clipPath>
  </defs>
  <sodipodi:namedview
     inkscape:document-units="px"
     pagecolor="#e4d6db"
     bordercolor="#666666"
     borderopacity="1.0"
     inkscape:pageopacity="1"
     inkscape:pageshadow="2"
     inkscape:zoom="2"
     inkscape:cx="197.86569"
     inkscape:cy="222.25056"
     inkscape:current-layer="layer1"
     id="namedview2989"
     showgrid="false"
     inkscape:window-width="1920"
     inkscape:window-height="1003"
     inkscape:window-x="-9"
     inkscape:window-y="-9"
     inkscape:window-maximized="1"
     units="px" />
  <metadata
     id="metadata2991">
    <rdf:RDF>
      <cc:Work
         rdf:about="">
        <dc:format>image/svg+xml</dc:format>
        <dc:type
           rdf:resource="http://purl.org/dc/dcmitype/StillImage" />
        <dc:title></dc:title>
      </cc:Work>
    </rdf:RDF>
  </metadata>
  <g
     inkscape:groupmode="layer"
     id="layer2"
     inkscape:label="background"
     transform="translate(0,-344.09448)"
     style="display:inline" />
  <g
     inkscape:label="Layer 1"
     inkscape:groupmode="layer"
     id="layer1"
     transform="translate(0,-344.09448)">
    <rect
       style="fill:#ffeeaa;fill-opacity:1;stroke:none"
       id="rect4437"
       width="1077.755"
       height="407.75507"
       x="1.1224976"
       y="335.21695"
       inkscape:export-xdpi="168.99001"
       inkscape:export-ydpi="168.99001"
       clip-path="url(#clipPath4251)"
       transform="matrix(-0.4175561,0,0,0.4175561,451.57644,205.03439)" />
    <g
       id="g973"
       transform="matrix(1.4726771,0,0,1.4726771,-378.50934,338.93187)">
      <g
         id="g975">
        <rect
           style="fill:#2c2067"
           id="rect977"
           height="26.930872"
           width="9.3539553"
           transform="matrix(-0.66921986,0.74306446,-0.74306446,-0.66921986,0,0)"
           y="-451.1113"
           x="-207.61194" />
        <rect
           style="fill:#2c2067"
           id="rect979"
           height="26.936937"
           width="9.355978"
           transform="matrix(0.99439012,-0.10577472,0.10577472,0.99439012,0,0)"
           y="205.57179"
           x="448.75604" />
        <path
           style="fill:#03a5ce"
           inkscape:connector-curvature="0"
           id="path981"
           d="m 459.084,133.476 c 0,5.519 -4.479,9.988 -9.997,9.988 -5.511,0 -9.982,-4.469 -9.982,-9.988 0,-5.522 4.472,-9.994 9.982,-9.994 5.517,0 9.997,4.472 9.997,9.994 z" />
        <path
           style="fill:#03a5ce"
           inkscape:connector-curvature="0"
           id="path983"
           d="m 480.61127,151.45952 c 0,5.519 -4.479,9.989 -9.999,9.989 -5.513,0 -9.982,-4.47 -9.982,-9.989 0,-5.521 4.47,-9.993 9.982,-9.993 5.521,0 9.999,4.472 9.999,9.993 z" />
        <polygon
           style="fill:#2c2067"
           id="polygon985"
           points="428.866,144.499 428.866,117.202 453.992,120.308 441.07,143.55 " />
        <g
           id="g987">
          <g
             id="g989" />
          <g
             id="g3404">
            <polygon
               points="453.42,190.222 441.997,209.54 451.344,210.067 458.386,198.169 "
               id="polygon991"
               style="fill:#2c2067"
               transform="matrix(0.8827367,-0.46986798,0.46986798,0.8827367,-14.051231,222.72374)" />
            <polygon
               points="447.726,186.845 438.376,186.32 431.334,198.218 436.298,206.163 "
               id="polygon993"
               style="fill:#2c2067"
               transform="matrix(0.90299575,-0.42964947,0.42964947,0.90299575,-11.749261,200.98026)" />
            <path
               d="m 482.91435,181.95689 c -2.81,4.75 -8.936,6.312 -13.688,3.501 -4.745,-2.808 -6.31,-8.935 -3.5,-13.681 2.809,-4.749 8.932,-6.319 13.674,-3.51 4.75,2.811 6.326,8.936 3.514,13.69 z"
               id="path995"
               inkscape:connector-curvature="0"
               style="fill:#03a5ce" />
          </g>
        </g>
      </g>
      <g
         id="g997">
        <polygon
           style="fill:#2c2067"
           id="polygon999"
           points="307.581,153.233 324.231,132.066 331.592,137.854 314.935,159.02 " />
        <rect
           style="fill:#2c2067"
           id="rect1001"
           height="26.934999"
           width="9.3559999"
           transform="matrix(-0.9058,0.4237,-0.4237,-0.9058,678.531,188.5218)"
           y="156.224"
           x="313.63" />
        <path
           style="fill:#03a5ce"
           inkscape:connector-curvature="0"
           id="path1003"
           d="m 318.586,133.476 c 0,5.519 4.479,9.988 9.998,9.988 5.51,0 9.986,-4.469 9.986,-9.988 0,-5.522 -4.476,-9.994 -9.986,-9.994 -5.519,0 -9.998,4.472 -9.998,9.994 z" />
        <path
           style="fill:#03a5ce"
           inkscape:connector-curvature="0"
           id="path1005"
           d="m 301.348,156.64 c 0,5.519 4.477,9.989 9.995,9.989 5.516,0 9.987,-4.47 9.987,-9.989 0,-5.521 -4.471,-9.993 -9.987,-9.993 -5.518,0 -9.995,4.472 -9.995,9.993 z" />
        <polygon
           style="fill:#2c2067"
           id="polygon1007"
           points="348.814,144.499 348.814,117.202 323.673,120.308 336.608,143.55 " />
        <g
           id="g1009">
          <g
             id="g1011">
            <polygon
               style="fill:#2c2067"
               id="polygon1013"
               points="326.323,210.067 319.282,198.169 324.248,190.222 335.681,209.54 " />
            <polygon
               style="fill:#2c2067"
               id="polygon1015"
               points="339.298,186.32 346.339,198.218 341.381,206.163 329.942,186.845 " />
          </g>
          <g
             id="g4288">
            <path
               d="m 317.758,192.375 c 2.81,4.75 8.942,6.312 13.696,3.501 4.741,-2.808 6.315,-8.935 3.502,-13.681 -2.809,-4.749 -8.936,-6.319 -13.677,-3.51 -4.755,2.811 -6.333,8.936 -3.521,13.69 z"
               id="path1017"
               inkscape:connector-curvature="0"
               style="fill:#03a5ce" />
          </g>
        </g>
      </g>
    </g>
    <g
       id="g1019"
       transform="matrix(1.4726771,0,0,1.4726771,-378.50934,338.93187)">
      <g
         id="g1021">
        <g
           id="g1023">
          <polygon
             style="fill:#03a5ce"
             id="polygon1025"
             points="402.064,217.063 404.112,193.14 414.333,193.14 416.385,217.063 414.333,246.479 404.112,246.479 " />
          <g
             id="g1027">
            <polygon
               style="fill:#2c2067"
               id="polygon1029"
               points="416.326,210.688 419.478,218.9 398.962,218.9 402.117,210.688 " />
            <polygon
               style="fill:#2c2067"
               id="polygon1031"
               points="416.326,228.933 419.478,220.719 398.962,220.719 402.117,228.933 " />
            <rect
               style="fill:#03a5ce"
               id="rect1033"
               height="7.3060002"
               width="24.285"
               y="216.15601"
               x="397.07999" />
          </g>
        </g>
        <polygon
           style="fill:#2c2067"
           id="polygon1035"
           points="423.105,186.524 419.014,199.051 399.432,199.051 395.337,186.524 " />
        <g
           id="g1037">
          <path
             style="fill:#2c2067"
             inkscape:connector-curvature="0"
             id="path1039"
             d="m 421.455,247.899 c 0,3.304 -2.702,6.007 -6.005,6.007 h -12.457 c -3.304,0 -6.006,-2.703 -6.006,-6.007 v -1.732 c 0,-3.304 2.702,-6.007 6.006,-6.007 h 12.457 c 3.303,0 6.005,2.703 6.005,6.007 v 1.732 z" />
        </g>
        <g
           id="g1041">
          <path
             style="fill:#03a5ce"
             inkscape:connector-curvature="0"
             id="path1043"
             d="m 426.43,256.479 h -34.421 v -4.551 c 0,-2.155 1.844,-3.917 4.097,-3.917 h 26.233 c 2.246,0 4.091,1.762 4.091,3.917 v 4.551 z" />
        </g>
        <rect
           style="fill:#2c2067"
           id="rect1045"
           height="2.198"
           width="34.421001"
           y="254.759"
           x="392.009" />
      </g>
      <g
         id="g1047">
        <g
           id="g1049">
          <polygon
             style="fill:#03a5ce"
             id="polygon1051"
             points="361.312,217.063 363.361,193.14 373.581,193.14 375.625,217.063 373.581,246.479 363.361,246.479 " />
          <g
             id="g1053">
            <polygon
               style="fill:#2c2067"
               id="polygon1055"
               points="375.575,210.688 378.729,218.9 358.211,218.9 361.361,210.688 " />
            <polygon
               style="fill:#2c2067"
               id="polygon1057"
               points="375.575,228.933 378.729,220.719 358.211,220.719 361.361,228.933 " />
            <rect
               style="fill:#03a5ce"
               id="rect1059"
               height="7.3060002"
               width="24.290001"
               y="216.15601"
               x="356.327" />
          </g>
        </g>
        <polygon
           style="fill:#2c2067"
           id="polygon1061"
           points="382.358,186.524 378.263,199.051 358.681,199.051 354.584,186.524 " />
        <g
           id="g1063">
          <path
             style="fill:#2c2067"
             inkscape:connector-curvature="0"
             id="path1065"
             d="m 380.702,247.899 c 0,3.304 -2.703,6.007 -6.007,6.007 h -12.453 c -3.304,0 -6.007,-2.703 -6.007,-6.007 v -1.732 c 0,-3.304 2.704,-6.007 6.007,-6.007 h 12.453 c 3.304,0 6.007,2.703 6.007,6.007 v 1.732 z" />
        </g>
        <g
           id="g1067">
          <path
             style="fill:#03a5ce"
             inkscape:connector-curvature="0"
             id="path1069"
             d="m 385.682,256.479 h -34.424 v -4.551 c 0,-2.155 1.845,-3.917 4.094,-3.917 h 26.236 c 2.252,0 4.094,1.762 4.094,3.917 v 4.551 z" />
        </g>
        <rect
           style="fill:#2c2067"
           id="rect1071"
           height="2.198"
           width="34.424"
           y="254.759"
           x="351.25699" />
      </g>
    </g>
    <g
       id="g1073"
       transform="matrix(1.4726771,0,0,1.4726771,-378.50934,338.93187)">
      <g
         id="g1075">
        <polygon
           style="fill:#b61318"
           id="polygon1077"
           points="400.092,38.322 393.129,54.669 391.702,54.059 398.67,37.714 " />
        <path
           style="fill:#e5a812"
           inkscape:connector-curvature="0"
           id="path1079"
           d="m 402.184,40.023 c -0.729,1.709 -2.707,2.507 -4.418,1.781 -1.711,-0.731 -2.506,-2.708 -1.777,-4.416 0.728,-1.715 2.707,-2.511 4.415,-1.781 1.71,0.727 2.504,2.707 1.78,4.416 z" />
      </g>
      <g
         id="g1081">
        <rect
           style="fill:#b61318"
           id="rect1083"
           height="17.767"
           width="1.553"
           transform="matrix(-0.9196,0.393,-0.393,-0.9196,751.0259,-61.3667)"
           y="37.307999"
           x="381.01801" />
        <path
           style="fill:#e5a812"
           inkscape:connector-curvature="0"
           id="path1085"
           d="m 375.51,40.023 c 0.726,1.709 2.706,2.507 4.415,1.781 1.713,-0.731 2.512,-2.708 1.778,-4.416 -0.728,-1.715 -2.706,-2.511 -4.417,-1.781 -1.705,0.727 -2.506,2.707 -1.776,4.416 z" />
      </g>
      <path
         style="fill:#e5a812"
         inkscape:connector-curvature="0"
         id="path1087"
         d="m 398.125,60.8 c 0,5.124 -4.153,9.278 -9.277,9.278 -5.128,0 -9.282,-4.154 -9.282,-9.278 0,-5.128 4.154,-9.282 9.282,-9.282 5.124,0 9.277,4.154 9.277,9.282 z" />
    </g>
    <g
       id="g1089"
       transform="matrix(1.4726771,0,0,1.4726771,-378.50934,338.93187)">
      <rect
         style="fill:#2c2067"
         id="rect1091"
         height="15.426"
         width="5.9580002"
         y="99.237"
         x="396.763" />
      <rect
         style="fill:#2c2067"
         id="rect1093"
         height="15.426"
         width="5.9629998"
         y="99.237"
         x="374.96799" />
    </g>
    <g
       id="g1095"
       transform="matrix(1.4726771,0,0,1.4726771,-378.50934,338.93187)">
      <path
         style="fill:#03a5ce"
         inkscape:connector-curvature="0"
         id="path1097"
         d="m 419.98,101.335 c 0.282,3.187 -2.104,5.795 -5.303,5.795 h -51.665 c -3.201,0 -5.586,-2.608 -5.303,-5.795 l 3.282,-36.895 c 0.284,-3.188 3.133,-5.795 6.335,-5.795 h 43.042 c 3.2,0 6.049,2.608 6.332,5.795 l 3.28,36.895 z" />
    </g>
    <path
       sodipodi:nodetypes="caccacc"
       inkscape:connector-curvature="0"
       id="rect1101"
       d="m 159.65762,470.8591 c 0,0 22.70563,3.78056 34.16209,3.76887 11.24834,-0.0115 33.53393,-3.76887 33.53393,-3.76887 l 0.31406,13.77022 c 0,0 -22.68078,4.41063 -34.16208,4.39702 -11.27366,-0.0133 -33.53394,-4.39702 -33.53394,-4.39702 z"
       style="fill:#b61318" />
    <g
       id="g3425"
       transform="matrix(1.4726771,0,0,1.3575901,-378.50934,351.46579)">
      <path
         inkscape:connector-curvature="0"
         style="fill:#e5a812"
         d="m 369.47,90.48248 2.152,0 0,5.458 -2.152,0 z"
         id="rect1105" />
      <path
         inkscape:connector-curvature="0"
         style="fill:#e5a812"
         d="m 374.04501,91.529999 2.152,0 0,5.458 -2.152,0 z"
         id="rect1107" />
      <path
         inkscape:connector-curvature="0"
         style="fill:#e5a812"
         d="m 378.621,91.955679 2.154,0 0,5.458 -2.154,0 z"
         id="rect1109" />
      <path
         inkscape:connector-curvature="0"
         style="fill:#e5a812"
         d="m 383.19299,92.577518 2.151,0 0,5.458 -2.151,0 z"
         id="rect1111" />
      <path
         inkscape:connector-curvature="0"
         style="fill:#e5a812"
         d="m 387.76599,93.003198 2.155,0 0,5.458 -2.155,0 z"
         id="rect1113" />
      <path
         inkscape:connector-curvature="0"
         style="fill:#e5a812"
         d="m 392.345,92.577518 2.153,0 0,5.458 -2.153,0 z"
         id="rect1115" />
      <path
         inkscape:connector-curvature="0"
         style="fill:#e5a812"
         d="m 396.91599,91.955679 2.154,0 0,5.458 -2.154,0 z"
         id="rect1117" />
      <path
         inkscape:connector-curvature="0"
         style="fill:#e5a812"
         d="m 401.48901,91.529999 2.158,0 0,5.458 -2.158,0 z"
         id="rect1119" />
      <path
         inkscape:connector-curvature="0"
         style="fill:#e5a812"
         d="m 406.064,90.48248 2.155,0 0,5.458 -2.155,0 z"
         id="rect1121" />
    </g>
    <rect
       style="fill:#e5a812"
       id="rect1123"
       height="15.533798"
       width="6.6506095"
       y="446.34894"
       x="190.8085" />
    <g
       id="g1125"
       transform="matrix(1.4726771,0,0,1.4726771,-378.50934,338.93187)">
      <path
         style="fill:#03a5ce"
         inkscape:connector-curvature="0"
         id="path1127"
         d="m 348.61,113.07 c -2.37,0 -4.31,1.939 -4.31,4.31 v 67.448 c 0,2.37 1.94,4.31 4.31,4.31 h 80.462 c 2.369,0 4.309,-1.939 4.309,-4.31 V 117.38 c 0,-2.371 -1.939,-4.31 -4.309,-4.31 H 348.61 z" />
    </g>
    <g
       id="g1129"
       transform="matrix(1.4726771,0,0,1.4726771,-378.50934,338.93187)">
      <g
         id="g1131">
        <path
           style="fill:#b61318"
           inkscape:connector-curvature="0"
           id="path1133"
           d="m 381.731,76.715 c 0,3.026 -2.452,5.479 -5.477,5.479 -3.021,0 -5.474,-2.453 -5.474,-5.479 0,-3.026 2.453,-5.479 5.474,-5.479 3.026,-0.001 5.477,2.452 5.477,5.479 z" />
        <rect
           style="fill:#e5a812"
           id="rect1135"
           height="2.1760001"
           width="9.8559999"
           y="67.500999"
           x="371.32999" />
      </g>
      <g
         id="g1137">
        <circle
           d="m 406.913,76.714996 c 0,3.024864 -2.45213,5.477001 -5.477,5.477001 -3.02486,0 -5.477,-2.452137 -5.477,-5.477001 0,-3.024863 2.45214,-5.477 5.477,-5.477 3.02487,0 5.477,2.452137 5.477,5.477 z"
           style="fill:#b61318"
           sodipodi:ry="5.4770002"
           sodipodi:rx="5.4770002"
           sodipodi:cy="76.714996"
           sodipodi:cx="401.436"
           id="circle1139"
           r="5.4770002"
           cy="76.714996"
           cx="401.436" />
        <rect
           style="fill:#e5a812"
           id="rect1141"
           height="2.1760001"
           width="9.8570004"
           y="67.500999"
           x="396.504" />
      </g>
    </g>
    <g
       id="g1143"
       transform="matrix(1.4726771,0,0,1.4726771,-378.50934,338.93187)">
      <g
         id="g1145">
        <rect
           style="fill:#b61318"
           id="rect1147"
           height="24.316999"
           width="29.952"
           y="123.828"
           x="355.63599" />
        <g
           id="g1149">
          <g
             id="g1151">
            <path
               style="fill:#e5a812"
               inkscape:connector-curvature="0"
               id="path1153"
               d="m 363.696,128.991 c 0,1.246 -1.005,2.251 -2.248,2.251 -1.244,0 -2.256,-1.006 -2.256,-2.251 0,-1.239 1.012,-2.248 2.256,-2.248 1.243,0 2.248,1.009 2.248,2.248 z" />
            <path
               style="fill:#e5a812"
               inkscape:connector-curvature="0"
               id="path1155"
               d="m 369.808,128.991 c 0,1.246 -1.005,2.251 -2.25,2.251 -1.241,0 -2.253,-1.006 -2.253,-2.251 0,-1.239 1.012,-2.248 2.253,-2.248 1.245,0 2.25,1.009 2.25,2.248 z" />
            <path
               style="fill:#e5a812"
               inkscape:connector-curvature="0"
               id="path1157"
               d="m 375.919,128.991 c 0,1.246 -1.005,2.251 -2.248,2.251 -1.246,0 -2.255,-1.006 -2.255,-2.251 0,-1.239 1.009,-2.248 2.255,-2.248 1.243,0 2.248,1.009 2.248,2.248 z" />
            <path
               style="fill:#e5a812"
               inkscape:connector-curvature="0"
               id="path1159"
               d="m 382.03,128.991 c 0,1.246 -1.006,2.251 -2.248,2.251 -1.248,0 -2.253,-1.006 -2.253,-2.251 0,-1.239 1.005,-2.248 2.253,-2.248 1.242,0 2.248,1.009 2.248,2.248 z" />
          </g>
          <g
             id="g1161">
            <path
               style="fill:#e5a812"
               inkscape:connector-curvature="0"
               id="path1163"
               d="m 363.696,142.982 c 0,1.246 -1.005,2.256 -2.248,2.256 -1.244,0 -2.256,-1.01 -2.256,-2.256 0,-1.24 1.012,-2.25 2.256,-2.25 1.243,0 2.248,1.01 2.248,2.25 z" />
            <path
               style="fill:#e5a812"
               inkscape:connector-curvature="0"
               id="path1165"
               d="m 369.808,142.982 c 0,1.246 -1.005,2.256 -2.25,2.256 -1.241,0 -2.253,-1.01 -2.253,-2.256 0,-1.24 1.012,-2.25 2.253,-2.25 1.245,0 2.25,1.01 2.25,2.25 z" />
            <path
               style="fill:#e5a812"
               inkscape:connector-curvature="0"
               id="path1167"
               d="m 375.919,142.982 c 0,1.246 -1.005,2.256 -2.248,2.256 -1.246,0 -2.255,-1.01 -2.255,-2.256 0,-1.24 1.009,-2.25 2.255,-2.25 1.243,0 2.248,1.01 2.248,2.25 z" />
            <path
               style="fill:#e5a812"
               inkscape:connector-curvature="0"
               id="path1169"
               d="m 382.03,142.982 c 0,1.246 -1.006,2.256 -2.248,2.256 -1.248,0 -2.253,-1.01 -2.253,-2.256 0,-1.24 1.005,-2.25 2.253,-2.25 1.242,0 2.248,1.01 2.248,2.25 z" />
          </g>
          <rect
             style="fill:#e5a812"
             id="rect1171"
             height="3.983"
             width="24.108999"
             y="133.99699"
             x="358.556" />
        </g>
      </g>
      <g
         id="g1173">
        <rect
           style="fill:#b61318"
           id="rect1175"
           height="24.316999"
           width="29.945999"
           y="123.828"
           x="392.10599" />
        <g
           id="g1177">
          <g
             id="g1179">
            <path
               style="fill:#e5a812"
               inkscape:connector-curvature="0"
               id="path1181"
               d="m 400.162,128.991 c 0,1.246 -1.006,2.251 -2.253,2.251 -1.243,0 -2.249,-1.006 -2.249,-2.251 0,-1.239 1.006,-2.248 2.249,-2.248 1.247,0 2.253,1.009 2.253,2.248 z" />
            <path
               style="fill:#e5a812"
               inkscape:connector-curvature="0"
               id="path1183"
               d="m 406.275,128.991 c 0,1.246 -1.009,2.251 -2.251,2.251 -1.245,0 -2.253,-1.006 -2.253,-2.251 0,-1.239 1.008,-2.248 2.253,-2.248 1.243,0 2.251,1.009 2.251,2.248 z" />
            <path
               style="fill:#e5a812"
               inkscape:connector-curvature="0"
               id="path1185"
               d="m 412.385,128.991 c 0,1.246 -1.007,2.251 -2.252,2.251 -1.242,0 -2.249,-1.006 -2.249,-2.251 0,-1.239 1.007,-2.248 2.249,-2.248 1.245,0 2.252,1.009 2.252,2.248 z" />
            <path
               style="fill:#e5a812"
               inkscape:connector-curvature="0"
               id="path1187"
               d="m 418.497,128.991 c 0,1.246 -1.007,2.251 -2.253,2.251 -1.241,0 -2.25,-1.006 -2.25,-2.251 0,-1.239 1.009,-2.248 2.25,-2.248 1.246,0 2.253,1.009 2.253,2.248 z" />
          </g>
          <g
             id="g1189">
            <path
               style="fill:#e5a812"
               inkscape:connector-curvature="0"
               id="path1191"
               d="m 400.162,142.982 c 0,1.246 -1.006,2.256 -2.253,2.256 -1.243,0 -2.249,-1.01 -2.249,-2.256 0,-1.24 1.006,-2.25 2.249,-2.25 1.247,0 2.253,1.01 2.253,2.25 z" />
            <path
               style="fill:#e5a812"
               inkscape:connector-curvature="0"
               id="path1193"
               d="m 406.275,142.982 c 0,1.246 -1.009,2.256 -2.251,2.256 -1.245,0 -2.253,-1.01 -2.253,-2.256 0,-1.24 1.008,-2.25 2.253,-2.25 1.243,0 2.251,1.01 2.251,2.25 z" />
            <path
               style="fill:#e5a812"
               inkscape:connector-curvature="0"
               id="path1195"
               d="m 412.385,142.982 c 0,1.246 -1.007,2.256 -2.252,2.256 -1.242,0 -2.249,-1.01 -2.249,-2.256 0,-1.24 1.007,-2.25 2.249,-2.25 1.245,0 2.252,1.01 2.252,2.25 z" />
            <path
               style="fill:#e5a812"
               inkscape:connector-curvature="0"
               id="path1197"
               d="m 418.497,142.982 c 0,1.246 -1.007,2.256 -2.253,2.256 -1.241,0 -2.25,-1.01 -2.25,-2.256 0,-1.24 1.009,-2.25 2.25,-2.25 1.246,0 2.253,1.01 2.253,2.25 z" />
          </g>
          <rect
             style="fill:#e5a812"
             id="rect1199"
             height="3.983"
             width="24.108999"
             y="133.99699"
             x="395.02399" />
        </g>
      </g>
    </g>
    <rect
       style="fill:#2c2067"
       id="rect1201"
       height="3.485827"
       width="97.810791"
       y="566.3147"
       x="145.22763" />
    <rect
       style="fill:#2c2067"
       id="rect1203"
       height="3.4917176"
       width="97.810791"
       y="574.84589"
       x="145.22763" />
    <rect
       style="fill:#2c2067"
       id="rect1205"
       height="3.4931901"
       width="97.810791"
       y="583.37567"
       x="145.22763" />
    <rect
       style="fill:#2c2067"
       id="rect1207"
       height="3.4946628"
       width="97.810791"
       y="591.9054"
       x="145.22763" />
    <rect
       style="fill:#2c2067"
       id="rect1209"
       height="3.4961355"
       width="97.810791"
       y="600.43073"
       x="145.22763" />
    <rect
       style="fill:#2c2067"
       id="rect1211"
       height="4.4268675"
       width="13.285019"
       y="607.64093"
       x="187.89697" />
    <g
       transform="matrix(0.37985875,0,0,0.94162882,169.77095,531.23221)"
       id="g3409"
       style="fill:#000000">
      <path
         d="m 348.61,113.07 c -2.37,0 -4.31,1.939 -4.31,4.31 v 67.448 c 0,2.37 1.94,4.31 4.31,4.31 h 80.462 c 2.369,0 4.309,-1.939 4.309,-4.31 V 117.38 c 0,-2.371 -1.939,-4.31 -4.309,-4.31 H 348.61 z"
         id="path3411"
         inkscape:connector-curvature="0"
         style="fill:#000000" />
    </g>
    <g
       style="fill:#000000"
       id="g4181"
       transform="matrix(0.08141841,0,0,0.20182745,285.81664,602.76175)">
      <path
         style="fill:#000000"
         inkscape:connector-curvature="0"
         id="path4183"
         d="m 348.61,113.07 c -2.37,0 -4.31,1.939 -4.31,4.31 v 67.448 c 0,2.37 1.94,4.31 4.31,4.31 h 80.462 c 2.369,0 4.309,-1.939 4.309,-4.31 V 117.38 c 0,-2.371 -1.939,-4.31 -4.309,-4.31 H 348.61 z" />
    </g>
    <flowRoot
       xml:space="preserve"
       id="flowRoot4420"
       style="font-size:40px;font-style:normal;font-weight:normal;line-height:125%;letter-spacing:0px;word-spacing:0px;fill:#000000;fill-opacity:1;stroke:none;font-family:Sans"
       transform="matrix(1.0626843,0,0,0.63647314,-227.17749,228.94349)"><flowRegion
         id="flowRegion4422"><rect
           id="rect4424"
           width="497.72266"
           height="513.72949"
           x="502.73016"
           y="226.75549"
           ry="0" /></flowRegion><flowPara
         id="flowPara4432"
         style="font-style:normal;font-variant:normal;font-weight:normal;font-stretch:normal;font-family:Courier New;-inkscape-font-specification:Courier New" /></flowRoot>  </g>
</svg>
